# xmcd
#
# Track frame offsets: 
#        150
#        17542
#        35300
#
# Disc length: 578 seconds
#
# Revision: 0
# Processed by: cddbd v1.4PL0 Copyright (c) Steve Scherf et al.
# Submitted via: ExactAudioCopy v0.95a3
#
DISCID=15024003
DTITLE=James Otto - Days Of Our Lives
DYEAR=2003
DGENRE=Country
TTITLE0=Days Of Our Lives
TTITLE1=The Ball
TTITLE2=James Otto talks sbout "Days Of Our Lives"
EXTD=
EXTT0=
EXTT1=
EXTT2=
PLAYORDER=
